<?xml version="1.0" standalone="no"?><!DOCTYPE svg PUBLIC "-//W3C//DTD SVG 1.1//EN" "http://www.w3.org/Graphics/SVG/1.1/DTD/svg11.dtd"><svg class="icon" width="32px" height="32.00px" viewBox="0 0 1024 1024" version="1.1" xmlns="http://www.w3.org/2000/svg"><path  d="M292.608 447.04h438.848V300.736H292.608zM292.608 715.84h228.544V569.536H292.608zM0 0v1024h521.152v-146.24H146.304V146.24h731.456v365.824H1024V0zM835.648 879.168c-21.696 0-36.16-14.528-36.16-36.224 0-21.76 14.464-36.224 36.16-36.224 21.76 0 36.224 14.464 36.224 36.224 0 21.696-14.464 36.224-36.224 36.224zM1024 799.36l-57.92-94.144-43.456 21.76c-14.464-7.296-21.696-14.528-36.224-21.76v-43.52h-108.672v43.52c-7.296 7.232-21.76 14.464-21.76 21.76l-43.456-21.76-57.984 94.08 28.992 21.76v43.52l-43.52 21.76 58.048 94.08 43.392-21.632c14.528 7.232 21.76 14.528 36.288 21.696V1024h108.672v-43.52c14.528-7.168 28.992-14.464 36.224-21.76l43.52 21.76L1024 886.4l-43.392-21.76v-43.52l43.392-21.76z" /></svg>