<svg t="1585627436589" class="icon" viewBox="0 0 1024 1024" version="1.1" xmlns="http://www.w3.org/2000/svg" p-id="3048" width="200" height="200"><path d="M481.409 563.686H366.295v-78.785h115.114c18.095 0 33.336-15.335 33.336-33.571 0-18.28-15.241-33.663-33.336-33.663h-40.008L461.492 372.5c7.62-17.301 0-36.469-17.113-44.186a35.88 35.88 0 0 0-1.244-0.538c-16.68-6.829-35.738 1.159-42.567 17.839l-32.003 72.052h-57.798l-32.045-72.052a28.065 28.065 0 0 0-0.514-1.185c-7.493-16.395-26.857-23.608-43.249-16.116-0.189 0.083-0.379 0.167-0.566 0.252-16.7 7.563-24.108 27.231-16.547 43.934l20.062 45.167h-53.444c-18.095 0-33.29 15.383-33.29 33.617 0.148 18.376 14.915 33.288 33.29 33.617h115.205v78.784H184.463c-18.095 0-33.29 15.383-33.29 33.615 0.148 18.383 14.915 33.29 33.29 33.619h115.205v90.284c0.126 18.414 14.927 33.359 33.339 33.669v0.046c18.093 0 33.288-15.388 33.288-33.619v-90.38h115.114c18.095 0 33.336-15.337 33.336-33.573 0-18.278-15.241-33.66-33.336-33.66zM857.422 441.045H653.751c-18.41-0.306-33.214-15.25-33.337-33.665 0-18.234 15.246-33.569 33.337-33.569H857.422c18.091 0 33.332 15.335 33.332 33.617 0 18.234-14.301 33.617-33.332 33.617z m-66.627 144.101H653.751c-18.41-0.301-33.214-15.25-33.337-33.66 0-18.236 15.246-33.574 33.337-33.574h137.044c18.091 0 33.332 15.338 33.332 33.62 0 18.231-14.301 33.614-33.332 33.614z m0 148.829H653.751c-18.41-0.301-33.214-15.25-33.337-33.66 0-18.237 15.246-33.574 33.337-33.574h137.044c18.091 0 33.332 15.337 33.332 33.62 0 18.231-14.301 33.614-33.332 33.614z" p-id="3049"></path><path d="M1023.997 164.661c0-60.502-49.468-110.436-109.406-110.436h-40.911c-15.488 0.112-28.88 10.819-32.405 25.903-5.703 23.049-25.665 39.414-49.468 39.414-23.798 0-43.761-16.365-49.514-39.414-2.85-15.337-17.113-25.903-32.31-25.903h-104.73c-15.47 0.135-28.839 10.837-32.354 25.903-5.703 23.049-25.67 39.414-49.516 39.414-23.751 0-43.764-16.365-49.466-39.414-2.899-15.337-17.162-25.903-32.357-25.903H327.336c-15.453 0.155-28.795 10.854-32.309 25.903-5.703 23.049-25.668 39.414-49.514 39.414-23.753 0-43.763-16.365-49.469-39.414-2.851-15.337-17.158-25.903-32.402-25.903h-54.235C49.465 54.225-0.004 104.159-0.004 164.661V851.6c0 60.505 49.468 110.438 109.411 110.438l771.554 1.012c38.132 0 74.121-15.129 101.337-42.601 27.131-27.387 42.073-63.554 42.073-101.838l-0.374-653.95zM956.372 818.612c0 41.434-34.533 76.438-75.41 76.438l-769.639-0.25c-23.798 0-42.827-19.214-42.827-43.199V164.709c-0.002-0.109-0.002-0.219-0.002-0.328 0-23.68 19.198-42.875 42.877-42.875h31.325c18.98 40.646 59.876 66.536 104.732 66.301 44.727-0.186 85.402-25.946 104.688-66.301h67.563c18.965 40.616 59.814 66.499 104.639 66.301 44.74-0.167 85.441-25.931 104.732-66.301h58.071c18.967 40.616 59.818 66.499 104.639 66.301 44.747-0.167 85.439-25.931 104.735-66.301h18.095c0.096 0.002 0.188 0.002 0.278 0.002 23.68 0.181 42.729 19.522 42.546 43.201l-1.042 653.903z" p-id="3050"></path></svg>