<svg t="1585627864628" class="icon" viewBox="0 0 1024 1024" version="1.1" xmlns="http://www.w3.org/2000/svg" p-id="5120" width="200" height="200"><path d="M819.2 486.4c-14.336 0-25.6-11.264-25.6-25.6V409.6c0-183.296-126.464-332.8-281.6-332.8S230.4 226.304 230.4 409.6v51.2c0 14.336-11.264 25.6-25.6 25.6s-25.6-11.264-25.6-25.6V409.6C179.2 197.632 328.704 25.6 512 25.6s332.8 172.032 332.8 384v51.2c0 14.336-11.264 25.6-25.6 25.6z" p-id="5121"></path><path d="M230.4 793.6h-51.2c-84.48 0-153.6-69.12-153.6-153.6v-51.2c0-84.48 69.12-153.6 153.6-153.6h51.2v358.4z m-51.2-307.2c-56.32 0-102.4 46.08-102.4 102.4v51.2c0 56.32 46.08 102.4 102.4 102.4v-256z" p-id="5122"></path><path d="M844.8 793.6h-51.2v-358.4h51.2c84.48 0 153.6 69.12 153.6 153.6v51.2c0 84.48-69.12 153.6-153.6 153.6z m0-307.2v256c56.32 0 102.4-46.08 102.4-102.4v-51.2c0-56.32-46.08-102.4-102.4-102.4z" p-id="5123"></path><path d="M563.2 972.8v-51.2c158.208 0 245.248-51.712 266.24-158.72l50.176 10.24C853.504 905.728 747.008 972.8 563.2 972.8z" p-id="5124"></path></svg>