<?xml version="1.0" standalone="no"?><!DOCTYPE svg PUBLIC "-//W3C//DTD SVG 1.1//EN" "http://www.w3.org/Graphics/SVG/1.1/DTD/svg11.dtd"><svg t="1595559993030" class="icon" viewBox="0 0 1024 1024" version="1.1" xmlns="http://www.w3.org/2000/svg" p-id="1340" xmlns:xlink="http://www.w3.org/1999/xlink" width="32" height="32"><defs><style type="text/css"></style></defs><path d="M256 192c0-38.4-25.6-64-64-64s-64 25.6-64 64 25.6 64 64 64 64-25.6 64-64z m128 0c0 108.8-83.2 192-192 192S0 300.8 0 192s83.2-192 192-192 192 83.2 192 192z m512 0c0-38.4-25.6-64-64-64s-64 25.6-64 64 25.6 64 64 64 64-25.6 64-64z m128 0c0 108.8-83.2 192-192 192s-192-83.2-192-192 83.2-192 192-192 192 83.2 192 192z m-256 704h128V576h-128v320zM384 576l128 134.4 128-128V448h384v576h-384v-256l-38.4 38.4L512 889.6l-128-128V1024H0V448h384v128z m-256 320h128V576H128v320z" p-id="1341" ></path></svg>
