<svg t="1585628235247" class="icon" viewBox="0 0 1026 1024" version="1.1" xmlns="http://www.w3.org/2000/svg" p-id="9290" width="200" height="200"><path d="M756.503 295.433C756.503 132.536 623.967 0 461.07 0S165.638 132.536 165.638 295.433a295.576 295.576 0 0 0 144.86 254.11A461.788 461.788 0 0 0 0 985.532a35.87 35.87 0 0 0 71.742 0c0-214.68 174.648-389.329 389.328-389.329a387.004 387.004 0 0 1 149.496 29.73 35.87 35.87 0 0 0 27.563-66.232 429.746 429.746 0 0 0-26.616-10.044 295.576 295.576 0 0 0 144.99-254.224zM461.07 519.124c-123.395 0-223.69-100.353-223.69-223.691S337.717 71.742 461.07 71.742s223.692 100.352 223.692 223.69S584.409 519.139 461.07 519.139zM682.236 634.872h344.361v71.742h-344.36z m0 158.693h344.361v71.742h-344.36z m0 158.693h344.361V1024h-344.36z" fill="" p-id="9291"></path></svg>