<?xml version="1.0" standalone="no"?><!DOCTYPE svg PUBLIC "-//W3C//DTD SVG 1.1//EN" "http://www.w3.org/Graphics/SVG/1.1/DTD/svg11.dtd"><svg class="icon" width="32px" height="32.00px" viewBox="0 0 1024 1024" version="1.1" xmlns="http://www.w3.org/2000/svg"><path d="M556.608 533.952l-83.84-83.84 149.696-149.568 83.776 83.84-149.632 149.568z m-23.936 23.936l-149.632 149.632-83.84-83.84 149.696-149.568 83.776 83.84z m53.888-5.952l83.776-83.84 29.888 29.952 161.6-161.6-167.552-167.552-161.6 161.6 5.952 11.904-83.776 83.84-95.744-101.76 323.2-323.2 341.12 341.12-323.2 323.2-113.664-113.664zM424.96 456.128l-83.84 83.84-11.968-11.968-161.6 161.536 167.616 167.616 161.6-161.6-29.952-29.952 83.84-83.776 113.664 113.728-323.2 323.2L0 683.52l323.2-323.2 101.76 95.744z" /></svg>
