<svg t="1585627906349" class="icon" viewBox="0 0 1101 1024" version="1.1" xmlns="http://www.w3.org/2000/svg" p-id="6753" width="200" height="200"><path d="M803.743396 801.811321c-5.796226 5.796226-9.660377 13.524528-9.660377 21.25283v131.381132c0 5.796226-1.932075 5.796226-5.796227 5.796226H307.2c-5.796226 0-7.728302 0-7.728302-5.796226v-133.313208c0-7.728302-1.932075-13.524528-7.728302-17.388679L54.098113 566.098113c-3.864151-3.864151-3.864151-5.796226-3.864151-11.592453V239.577358c0-3.864151 1.932075-7.728302 3.864151-11.592452 59.89434-57.962264 117.856604-117.856604 177.750944-177.750944 3.864151-3.864151 5.796226-3.864151 11.592452-3.864151h59.89434c5.796226 0 7.728302 1.932075 7.728302 7.728302v249.237736c0 9.660377 3.864151 17.388679 11.592453 23.184906 79.215094 57.962264 137.177358 98.535849 214.460377 156.498113 7.728302 5.796226 13.524528 5.796226 21.25283 0 79.215094-57.962264 141.041509-98.535849 220.256604-156.498113 5.796226-3.864151 7.728302-9.660377 7.728302-17.38868V52.166038c0-5.796226 1.932075-5.796226 5.796226-5.796227h59.89434c3.864151 0 5.796226 1.932075 7.728302 3.864151 59.89434 59.89434 119.788679 121.720755 181.615094 181.615095 1.932075 1.932075 3.864151 5.796226 3.864151 7.728301v316.860378c0 3.864151-1.932075 5.796226-3.864151 9.660377-79.215094 77.283019-158.430189 156.498113-237.645283 235.713208z m276.286793-593.14717L879.09434 7.728302c-3.864151-3.864151-9.660377-7.728302-17.38868-7.728302h-104.332075c-15.456604 0-21.25283 7.728302-21.25283 21.25283V289.811321c0 3.864151 0 5.796226-3.864151 7.728302l-179.683019 133.313207c-3.864151 1.932075-5.796226 1.932075-7.728302 0-59.89434-44.437736-121.720755-88.875472-181.615094-133.313207-3.864151-1.932075-3.864151-5.796226-3.864151-9.660378V21.25283c0-13.524528-7.728302-21.25283-21.25283-21.25283h-104.332076c-7.728302 0-13.524528 1.932075-19.320755 7.728302L144.90566 77.283019C100.467925 121.720755 57.962264 166.158491 13.524528 210.596226c-3.864151 3.864151-7.728302 9.660377-7.728302 15.456604v345.84151c0 7.728302 1.932075 13.524528 7.728302 19.320754l227.984906 227.984906c3.864151 3.864151 5.796226 7.728302 5.796226 13.524528V985.358491c0 11.592453 9.660377 21.25283 21.252831 21.25283h558.369811c13.524528 0 19.320755-7.728302 19.320755-19.320755v-152.633962c0-5.796226 1.932075-7.728302 5.796226-11.592453 77.283019-77.283019 154.566038-152.633962 229.916981-229.916981 3.864151-3.864151 7.728302-9.660377 7.728302-17.388679V229.916981c0-9.660377-3.864151-15.456604-9.660377-21.25283z" p-id="6754"></path></svg>