<?xml version="1.0" standalone="no"?><!DOCTYPE svg PUBLIC "-//W3C//DTD SVG 1.1//EN" "http://www.w3.org/Graphics/SVG/1.1/DTD/svg11.dtd"><svg class="icon" width="16px" height="16.00px" viewBox="0 0 1024 1024" version="1.1" xmlns="http://www.w3.org/2000/svg"><path  d="M758.272 840.768L679.168 761.6l-79.168 79.168 158.272 158.272L1024 733.376l-79.232-79.232zM131.2 624.384L6.208 749.248H0v249.792h499.456v-124.928H124.864v-68.672l56.192-56.192h368.384l131.2-124.8zM405.824 437.12a154.56 154.56 0 0 1-156.032-156.16 154.56 154.56 0 0 1 156.032-156.032A154.56 154.56 0 0 1 561.92 280.96 154.56 154.56 0 0 1 405.824 437.12m0-437.12a279.872 279.872 0 0 0-280.96 280.96 279.808 279.808 0 0 0 280.96 280.96 279.808 279.808 0 0 0 281.024-280.96A279.872 279.872 0 0 0 405.824 0" /></svg>
