<svg t="1585629251275" class="icon" viewBox="0 0 1024 1024" version="1.1" xmlns="http://www.w3.org/2000/svg" p-id="24409" width="200" height="200"><path d="M911.668776 808.790813L707.474729 607.125568a210.929521 210.929521 0 0 0 20.4764-90.921896c0-117.038856-94.529615-211.680462-211.71646-211.680463-19.464479 0-38.610984 2.621795-56.546582 7.603406l90.578923 90.288946c37.573065 37.834044 34.69129 101.146098-6.070525 141.836919-40.598828 40.44584-104.201859 43.306617-141.775924 6.096524l-90.379939-90.947895a211.700461 211.700461 0 0 0-7.629404 56.807562c0 117.24384 94.840591 212.319413 211.761456 212.319413 32.197485 0 63.405046-7.369424 90.615921-20.638388l203.294117 202.088212c25.968971 25.448012 69.306585 23.93013 97.15141-4.343661 27.817827-27.64484 29.806671-71.411421 4.435654-96.843434z m-54.813718 82.233576c-19.694461 0-36.342161-16.090743-36.342161-36.10118 0-19.346489 16.648699-35.238247 36.342161-35.238247 19.898445 0 35.897196 15.860761 35.897196 35.237247 0 20.011437-16.00475 36.103179-35.897196 36.10318z m103.757894-468.823373H939.936567l-48.539207-0.429967c-9.679244-0.89393-18.881525-4.34766-26.975893-9.591251-0.546957 0-0.745942-0.223983-1.093914-0.658948a62.219139 62.219139 0 0 1-28.190798-52.86287c0-6.964456 1.40989-13.269963 3.596719-19.805453a52.678884 52.678884 0 0 1 10.133208-19.346488l10.62417-10.88415 24.06812-23.695149 14.112897-14.368877c20.588392-26.515928 20.588392-64.610952-0.724943-91.361863l-41.34477-42.412686c-27.552847-21.104351-65.474885-21.7633-92.332786-1.292899l-15.032826 14.33888-33.486384 34.380314h-0.459964c-18.282572 14.798844-43.500602 17.618624-64.38497 8.466338a67.619717 67.619717 0 0 1-19.893446-13.474947c-9.903226-10.654168-16.008749-23.495164-17.705616-37.200094V72.403343C608.152488 38.686978 581.38158 12.146051 546.920272 8.227357H487.991876c-33.858355 3.71471-61.125225 30.235638-65.934849 63.74702v68.958613c-0.198984 1.752863-0.862933 3.683712-0.974924 5.23759v0.633951c-0.546957 1.726865-0.719944 3.484728-0.949926 5.007609-0.664948 0-0.664948 0.659948-0.664948 0.659948-0.602953 1.521881-0.949926 3.918694-1.813858 4.981611-0.577955 1.956847-1.66587 3.484728-2.503805 5.237591v0.203984c-3.602719 7.399422-8.610327 13.704929-15.345801 19.147504-10.87915 9.356269-25.47801 15.002828-41.114788 15.002828-14.685853 0-28.390782-4.982611-38.983954-13.704929l-10.741161-10.859152-23.981126-23.495165-14.568862-14.798843c-26.775908-20.439403-64.727943-20.439403-91.385861 1.093914l-42.264698 41.748739c-21.303336 26.545926-21.651308 64.609952-1.292899 91.820826l14.568862 14.33888 34.149332 33.945348c0.664948 1.092915 1.179908 1.956847 1.844856 3.019764 0.459964 0.203984 0.863933 1.092915 1.752863 2.186829 0.459964 0.63395 0.837935 1.926849 1.527881 2.82078 0 0.203984 1.123912 1.297899 1.123912 1.956847 0.607953 0.868932 1.292899 2.391813 2.018842 3.485727 0 0.632951 0.229982 1.291899 0.576955 1.956848 0.63895 0.862933 0.863933 2.390813 1.844856 3.714709 0 0.429966 0.111991 1.093915 0.347973 1.726865 0.172986 1.957847 1.174908 3.485728 1.174908 5.411578 0.546957 1.956847 0.837935 3.684712 0.837935 5.672557 2.764784 18.717538-3.566721 38.294008-18.165581 52.662885a61.810171 61.810171 0 0 1-37.287087 18.05359h-68.984611c-33.854355 4.813624-60.518272 31.768518-64.319975 65.2799l-0.199984 59.398359c3.45573 34.155332 30.001656 60.900242 63.74802 65.474885h20.761378l48.110241 0.657949c1.727865 0.204984 4.149676 0.204984 5.75955 0.869932h1.639872c1.522881 0.632951 2.386814 1.097914 4.144676 1.301898a63.670026 63.670026 0 0 1 44.8035 60.921241c0 14.568862-4.981611 28.733755-13.791923 39.586907l-10.567174 10.219201-24.247106 23.726147-14.480868 14.368877c-20.215421 27.210874-20.215421 65.044918 0.745941 91.591845l42.095712 42.412686c26.862901 21.338333 64.497961 21.533318 91.790828 0.868932l14.33888-14.343879 34.517304-33.715366c0-0.434966 0.290977-0.434966 0.719943-0.664948 1.292899-1.292899 2.739786-1.956847 3.71571-3.254746 1.179908-0.199984 1.40989-0.199984 2.273822-0.868932 0.632951-0.429966 1.757863-1.317897 2.620796-1.951848 1.179908-0.669948 2.708788-0.868932 3.919693-1.53288 0.745942-0.434966 1.323897-0.628951 1.552879-1.088915 1.814858-0.203984 3.025764-0.867932 5.416577-1.52788 2.074838-0.63795 3.479728-1.53288 5.008609-1.532881h0.576954c1.639872-0.428966 3.367737-0.658949 5.242591-1.087915h0.429966c1.552879 0 3.049762 0 4.348661-0.659948 17.623623-0.63795 35.447231 5.437575 48.544207 18.93852 10.853152 10.429185 16.525709 23.929131 18.395563 37.629061l-0.229982 14.803843v53.955785c4.119678 34.17633 31.211562 60.92624 65.014921 64.405968h59.485352c34.087337-3.484728 60.808249-30.005656 65.493884-63.317053v-20.434404l0.551956-34.80928V891.720334c1.322897-12.41703 5.75955-22.638231 12.606016-31.758519 0.669948-1.098914 1.302898-1.762862 1.961846-2.396812 0.434966-0.224982 0.955925-1.522881 1.957847-1.951848a75.285118 75.285118 0 0 1 12.698008-11.089133c1.40489-0.198984 2.82078-1.292899 3.71471-1.956848 1.067917-0.63395 1.067917-0.63395 1.527881-0.63395 0.63395-0.203984 1.067917-0.203984 1.179908-0.203984 1.206906-0.863933 2.187829-0.863933 3.597719-1.522881l-56.929553-56.751566c-24.671073 7.16944-50.671041 10.654168-77.533943 10.654167-153.927974-0.198984-277.905289-124.846246-277.384329-278.01828 0-154.007968 125.102226-278.451246 278.800219-278.017279 153.488009 0.63395 277.409327 125.301211 277.185345 278.912209-0.117991 26.080962-4.062683 51.998938-11.033138 75.469104l57.355519 56.373596c2.93777-6.735474 7.602406-12.612015 12.814999-18.518553 5.901539-5.641559 13.735927-9.99022 20.874369-12.810999 5.385579-2.386814 10.914147-4.144676 16.244731-4.808624h69.387579c33.715366-4.578642 60.379283-31.323553 64.180986-65.044919v-60.052308c-3.397735-33.603375-29.831669-60.808249-63.317054-65.386892l-0.009999-0.004999z" p-id="24410"></path></svg>