<?xml version="1.0" standalone="no"?><!DOCTYPE svg PUBLIC "-//W3C//DTD SVG 1.1//EN" "http://www.w3.org/Graphics/SVG/1.1/DTD/svg11.dtd"><svg class="icon" width="16px" height="16.00px" viewBox="0 0 1024 1024" version="1.1" xmlns="http://www.w3.org/2000/svg"><path  d="M179.2 640L0 819.2V1024h832v-204.8L646.4 640H179.2zM128 876.8L236.8 768h358.4l108.8 108.8v19.2H128v-19.2zM742.4 293.696V352c0 29.12-4.416 57.472-11.904 84.608H1024V293.76h-281.6zM650.624 0a330.56 330.56 0 0 1 80.704 142.912H1024V0H650.624zM512 352C512 403.2 467.2 448 416 448S320 403.2 320 352v-128C320 172.8 364.8 128 416 128S512 172.8 512 224v128zM416 0C294.4 0 192 102.4 192 224v128C192 473.6 294.4 576 416 576S640 473.6 640 352v-128C640 102.4 537.6 0 416 0zM739.392 587.392L887.424 730.24H1024V587.392z" /></svg>
