<?xml version="1.0" standalone="no"?><!DOCTYPE svg PUBLIC "-//W3C//DTD SVG 1.1//EN" "http://www.w3.org/Graphics/SVG/1.1/DTD/svg11.dtd"><svg class="icon" width="16px" height="16.00px" viewBox="0 0 1024 1024" version="1.1" xmlns="http://www.w3.org/2000/svg"><path  d="M512 448C422.4 448 352 377.6 352 288S422.4 128 512 128s160 70.4 160 160S601.6 448 512 448m0-448C352 0 224 128 224 288S352 576 512 576s288-128 288-288S672 0 512 0M896 896H128V825.6l57.6-57.6h652.8l57.6 57.6V896z m-6.4-256H134.4l-128 128H0v256h1024V768l-134.4-128z" /></svg>
