<svg t="1585627472208" class="icon" viewBox="0 0 1140 1024" version="1.1" xmlns="http://www.w3.org/2000/svg" p-id="3872" width="200" height="200"><path d="M1.342071 999.037484V24.962516C7.824273 4.979083 12.588624 1.342071 32.384168 1.342071h1079.024901c19.057405 0 27.405085 9.139502 27.405086 30.048964v961.486344c0 20.627628-8.267156 29.78055-26.841416 29.78055h-774.374836q-154.995754 0-310.018349-0.228152c-5.663539 0-12.548362-1.771533-16.655098-5.583014-4.536199-4.214102-6.509043-11.743119-9.582385-17.809279z m569.038008 8.857667h540.170065c12.494679 0 14.762779-2.496252 14.762779-16.333002V32.290223c0-13.635439-2.375465-16.171953-15.044614-16.171953H30.626055c-12.682569 0-15.17882 2.764666-15.17882 16.86983V991.521887c0 13.83675 2.308362 16.373263 14.762778 16.373264z" fill="" p-id="3873"></path><path d="M500.109253 452.371796l18.547418 56.662228-65.922516 21.956277 40.476854 56.299869-48.314548 35.376986-41.188152-56.058296L362.667785 622.720839 314.044561 587.66595l40.691586-56.366972-65.895675-21.916016 18.332687-56.850118 66.419082 21.003408v-68.324823h59.762412v68.445609zM772.36173 510.080839l-65.949358 21.969698 40.5708 56.366973-48.435335 35.215937-41.067365-56.098558-41.14789 56.071717-48.448755-35.108572 40.476855-56.232765-65.761468-22.023382 18.386369-56.70249 65.761468 20.909463v-68.44561h60.393185v68.552975l66.727759-21.218138zM246.444456 455.458558l18.38637 56.715911L199.149882 534.144168l40.369489 56.366972-48.314548 35.296462-41.161311-56.192504-41.067365 56.192504-48.489017-35.135413 40.503696-56.366973-65.895675-21.875753 18.440052-56.675649 66.768021 21.05709v-68.445609h59.239004v68.445609zM837.076383 535.258087v-31.565505h277.942857v31.565505z" fill="" p-id="3874"></path></svg>