<svg t="1585628007160" class="icon" viewBox="0 0 1024 1024" version="1.1" xmlns="http://www.w3.org/2000/svg" p-id="7718" width="200" height="200"><path d="M512 665.6c-30.72 0-51.2 25.6-51.2 51.2 0 30.72 25.6 51.2 51.2 51.2 30.72 0 51.2-25.6 51.2-51.2 0-30.72-20.48-51.2-51.2-51.2z m0-450.56c-30.72 0-51.2 25.6-51.2 51.2V537.6c0 30.72 25.6 51.2 51.2 51.2 30.72 0 51.2-25.6 51.2-51.2V271.36c0-30.72-20.48-56.32-51.2-56.32z m409.6 92.16V163.84c0-15.36-10.24-30.72-25.6-35.84-122.88-35.84-230.4-56.32-378.88-71.68H512c-76.8 5.12-143.36 15.36-204.8 25.6C245.76 97.28 184.32 112.64 128 128c-15.36 5.12-25.6 20.48-25.6 35.84v128c-5.12 337.92-5.12 465.92 337.92 650.24 30.72 15.36 51.2 20.48 71.68 20.48 20.48 0 46.08-5.12 71.68-20.48 343.04-179.2 343.04-281.6 337.92-634.88zM552.96 880.64C537.6 890.88 522.24 896 512 896c-10.24 0-20.48-5.12-40.96-15.36-302.08-163.84-302.08-256-296.96-588.8v-102.4c46.08-10.24 97.28-25.6 148.48-35.84C378.88 138.24 445.44 133.12 512 128c128 15.36 230.4 30.72 337.92 61.44V307.2c5.12 343.04 5.12 414.72-296.96 573.44z" p-id="7719"></path></svg>