<svg t="1585628868840" class="icon" viewBox="0 0 1024 1024" version="1.1" xmlns="http://www.w3.org/2000/svg" p-id="20682" width="200" height="200"><path d="M938.636914 0H85.321082A85.331583 85.331583 0 0 0 0.010501 85.331583v853.336834a85.331583 85.331583 0 0 0 85.310581 85.331583h853.315832a85.331583 85.331583 0 0 0 85.352585-85.331583V85.352585A85.352585 85.352585 0 0 0 938.636914 0z m0 938.647415H85.321082V85.331583h853.315832v853.315832z m-469.313207-170.663167h85.310581v85.331584h-85.310581v-85.331584z m42.676293-511.989499a128.196895 128.196895 0 0 1 127.986874 128.007876c0 45.595586-24.530467 87.998851-64.014439 110.912156-31.71319 18.418853-58.511885 45.616588-77.455791 78.547901a220.249154 220.249154 0 0 0-29.192937 109.210985h85.310581c0-46.687696 25.097524-91.359189 64.014439-113.873454a214.179543 214.179543 0 0 0 106.690732-184.797588c0-117.61183-95.769633-213.339459-213.339459-213.339459-117.61183 0-213.339459 95.748631-213.339459 213.339459h85.331583a128.217897 128.217897 0 0 1 128.007876-128.007876z" p-id="20683"></path></svg>