<svg t="1585627335339" class="icon" viewBox="0 0 1024 1024" version="1.1" xmlns="http://www.w3.org/2000/svg" p-id="2251" width="200" height="200"><path d="M1024 256L915.2 19.2c-12.8-12.8-25.6-19.2-32-19.2H140.8c-12.8 0-19.2 6.4-25.6 19.2L0 256v736c0 19.2 12.8 32 32 32h960c19.2 0 32-12.8 32-32V256zM64 300.8h896v294.4H64v-294.4z m102.4-236.8h697.6L947.2 236.8H83.2L166.4 64z m793.6 896H64v-300.8h896v300.8z" p-id="2252"></path><path d="M767.561143 416a35.657143 35.657143 0 1 0 71.314286 0 35.657143 35.657143 0 0 0-71.314286 0z m0 338.724571a35.657143 35.657143 0 1 0 71.314286 0 35.657143 35.657143 0 0 0-71.314286 0z" p-id="2253"></path></svg>