<svg t="1585628117912" class="icon" viewBox="0 0 1024 1024" version="1.1" xmlns="http://www.w3.org/2000/svg" p-id="8537" width="200" height="200"><path d="M202.841193 47.553417V0h618.440809v47.553417z" p-id="8538"></path><path d="M868.79846 572.131665a165.685467 165.685467 0 0 1-118.969779-50.165159 166.018094 166.018094 0 0 1-237.767083 0 166.018094 166.018094 0 0 1-237.767084 0 165.685467 165.685467 0 0 1-118.920501 50.165159h-4.287199a153.809432 153.809432 0 0 1-128.431184-75.149182 156.54437 156.54437 0 0 1-5.950336-151.320885L140.849278 97.225794h742.41232l124.193262 248.374206a156.54437 156.54437 0 0 1-5.950336 151.320885 153.809432 153.809432 0 0 1-128.431184 75.149182c-1.416747 0.036959-2.845813 0.061598-4.27488 0.061598z m-118.969779-129.58922l19.501829 29.357459a119.142252 119.142252 0 0 0 99.418672 53.417517h3.079884c37.426756-0.948604 70.036574-20.068527 89.489125-52.444274a109.951877 109.951877 0 0 0 4.200962-106.280654l-111.245428-222.503176H169.787873l-111.245428 222.503176-20.943215-10.471608 20.943215 10.471608a109.951877 109.951877 0 0 0 4.200962 106.280654c19.452551 32.388065 52.074687 51.495669 89.489124 52.444274h3.092204a119.142252 119.142252 0 0 0 99.418672-53.417517l19.551107-29.357459 19.501829 29.357459a119.216169 119.216169 0 0 0 198.825024 0l19.440231-29.357459 19.501828 29.357459a119.216169 119.216169 0 0 0 198.825024 0zM797.456015 1024H226.66718a118.67411 118.67411 0 0 1-118.538595-118.538595v-309.220404h46.814245v309.220404a71.798268 71.798268 0 0 0 71.72435 71.724351h570.788835a71.810587 71.810587 0 0 0 71.724351-71.724351v-309.220404h46.814244v309.220404a118.67411 118.67411 0 0 1-118.538595 118.538595z" p-id="8539"></path></svg>