<svg t="1585628612641" class="icon" viewBox="0 0 1024 1024" version="1.1" xmlns="http://www.w3.org/2000/svg" p-id="16532" width="200" height="200"><path d="M210.944 860.16h604.672v39.936H210.944zM1001.984 314.368c-6.656-22.528-24.576-39.424-47.104-44.032-4.096-1.024-8.704-1.536-13.824-1.536-36.864 0-65.024 28.672-65.024 65.536 0 24.064 13.312 45.568 32.768 56.832l-185.344 168.96L532.48 267.776c31.744-7.168 55.296-36.352 55.296-71.168 0-39.936-32.256-72.704-71.168-72.704C476.16 123.904 445.44 156.16 445.44 196.608c0 34.816 24.576 64.512 56.32 71.168l-181.248 307.2-200.704-190.464c2.048-2.048 4.608-4.608 6.144-6.656 11.264-15.36 14.336-35.328 8.704-54.272-6.656-20.992-24.576-37.376-46.592-40.96-4.096-1.024-7.168-1.024-10.24-1.024-33.28 0-58.88 26.624-58.88 59.904 0 32.768 26.624 59.904 59.392 59.904 9.728 0 18.944-2.56 27.136-6.656l108.032 430.08h604.16l111.104-425.984c4.096 1.024 8.192 1.536 12.8 1.536 20.992 0 39.936-10.24 51.2-25.6 12.288-17.92 15.872-39.424 9.216-60.416z" p-id="16533"></path></svg>