<?xml version="1.0" standalone="no"?><!DOCTYPE svg PUBLIC "-//W3C//DTD SVG 1.1//EN" "http://www.w3.org/Graphics/SVG/1.1/DTD/svg11.dtd"><svg class="icon" width="16px" height="16.00px" viewBox="0 0 1024 1024" version="1.1" xmlns="http://www.w3.org/2000/svg"><path  d="M391.872 756.224l44.288-285.44-3.84-12.352-37.632-40c-44.544-47.36-57.984-118.016-34.176-179.968 23.68-61.632 79.36-102.144 141.44-103.168 62.784 0.96 118.656 41.536 142.272 103.296 23.872 62.144 10.304 132.864-34.56 180.224l-37.504 39.808-3.84 12.288 44.288 285.312 14.464 12.352h235.648l3.2 96.192H138.496l3.072-96.192h235.776l14.464-12.352z m599.872-113.088l-1.28-5.568-13.44-8.896H728.32l-18.24-117.632c78.144-86.592 100.8-212.864 57.408-323.84C723.008 73.408 618.88 0 502.272 0c-116.672 0-220.8 73.472-265.216 187.136-43.392 111.04-20.8 237.312 57.344 323.84l-18.176 117.888H27.264l-14.592 14.08L0 989.312l14.656 15.168h975.232l14.592-15.168-12.736-346.24z" /></svg>
