<svg t="1585629139624" class="icon" viewBox="0 0 1024 1024" version="1.1" xmlns="http://www.w3.org/2000/svg" p-id="23652" width="200" height="200"><path d="M944.810667 30.47619a103.082667 103.082667 0 0 0-73.142857-30.47619H97.52381v195.047619H48.761905v48.761905h48.761905v146.285714l-48.761905-4.193524V438.857143h48.761905v146.285714H48.761905v48.761905h48.761905v146.285714H48.761905v48.761905h48.761905v195.047619h731.428571c57.246476 0 146.285714-47.34781 146.285714-104.643048V103.911619a103.375238 103.375238 0 0 0-30.427428-73.435429zM926.47619 97.52381l-3.072 821.833142a52.028952 52.028952 0 0 1-51.98019 52.028953L780.190476 975.238095V48.761905l91.233524 3.120762A49.737143 49.737143 0 0 1 926.47619 97.52381zM146.285714 780.190476v-146.285714h48.761905v-48.761905H146.285714V438.857143h48.761905V390.095238H146.285714V243.809524h48.761905V195.047619H146.285714V48.761905h585.142857v926.47619H146.285714v-146.285714h48.761905v-48.761905H146.285714z" p-id="23653"></path></svg>