<svg t="1585628728960" class="icon" viewBox="0 0 1024 1024" version="1.1" xmlns="http://www.w3.org/2000/svg" p-id="19784" width="200" height="200"><path d="M860.16 160.426667h-68.266667V139.946667c0-46.08-37.546667-83.626667-83.626666-83.626667H139.946667c-46.08 0-83.626667 37.546667-83.626667 83.626667v616.106666c0 46.08 37.546667 83.626667 83.626667 83.626667h76.8v13.653333c0 46.08 37.546667 83.626667 83.626666 83.626667h559.786667c46.08 0 83.626667-37.546667 83.626667-83.626667V244.053333c0-46.08-37.546667-83.626667-83.626667-83.626666zM602.453333 785.066667v-68.266667c0-27.306667 22.186667-49.493333 49.493334-49.493333h76.8L602.453333 785.066667z m-512-29.013334V139.946667c0-27.306667 22.186667-49.493333 49.493334-49.493334h564.906666c27.306667 0 49.493333 22.186667 49.493334 49.493334v493.226666h-104.106667c-46.08 0-83.626667 37.546667-83.626667 83.626667v88.746667h-426.666666c-27.306667 0-49.493333-22.186667-49.493334-49.493334z m819.2 97.28c0 27.306667-22.186667 49.493333-49.493333 49.493334H300.373333c-27.306667 0-49.493333-22.186667-49.493333-49.493334v-13.653333h341.333333c5.12 0 8.533333-1.706667 11.946667-5.12L785.066667 662.186667v-1.706667c1.706667-1.706667 1.706667-3.413333 3.413333-3.413333v-1.706667c0-1.706667 0-3.413333 1.706667-5.12V194.56h68.266666c27.306667 0 49.493333 22.186667 49.493334 49.493333V853.333333z" p-id="19785"></path><path d="M197.973333 278.186667H648.533333c10.24 0 17.066667-6.826667 17.066667-17.066667s-6.826667-17.066667-17.066667-17.066667H197.973333c-10.24 0-17.066667 6.826667-17.066666 17.066667s6.826667 17.066667 17.066666 17.066667zM197.973333 418.133333H648.533333c10.24 0 17.066667-6.826667 17.066667-17.066666s-6.826667-17.066667-17.066667-17.066667H197.973333c-10.24 0-17.066667 6.826667-17.066666 17.066667s6.826667 17.066667 17.066666 17.066666zM585.386667 542.72c0-10.24-6.826667-17.066667-17.066667-17.066667H197.973333c-10.24 0-17.066667 6.826667-17.066666 17.066667s6.826667 17.066667 17.066666 17.066667h370.346667c10.24 0 17.066667-8.533333 17.066667-17.066667z" p-id="19786"></path></svg>