<svg t="1585628951126" class="icon" viewBox="0 0 1059 1024" version="1.1" xmlns="http://www.w3.org/2000/svg" p-id="22087" width="200" height="200"><path d="M978.36488 925.192c-5.165 2.705-10.9 4.1-16.64 4.1-7.135 0-14.26-2.13-20.41-6.39-62.53-43.275-94-62.7-170.46-62.7-76.385 0-149.815 19.425-212.431 62.7-0.572 0.49-1.31 0.65-1.965 1.065-0.657 0.33-1.15 0.895-1.8 1.225-0.907 0.495-1.893 0.655-2.873 1.065-1.15 0.5-2.377 0.985-3.522 1.39-1.885 0.5-3.772 0.83-5.738 1.07-1.062 0.165-2.13 0.325-3.198 0.405-0.41 0-0.82 0.17-1.31 0.17-1.065 0-2.127-0.41-3.198-0.49-1.967-0.17-3.852-0.415-5.737-0.905-1.473-0.405-2.868-0.9-4.26-1.56-1.148-0.41-2.3-0.565-3.363-1.145-0.738-0.405-1.225-0.985-1.965-1.39-0.573-0.335-1.23-0.49-1.802-0.9-62.618-43.275-136.045-62.7-212.431-62.7-76.463 0-107.93 19.425-170.543 62.7-10.902 7.625-25.243 8.36-36.965 2.29-11.8-6.145-19.175-18.36-19.175-31.635L78.57888 179.243c0-11.723 5.738-22.618 15.405-29.34 69.978-49.21 120.5-75.665 211.63-75.665 82.943 0 162.498 16.33 232.486 59.275 69.905-42.945 150.453-61.625 233.438-59.275 90.45 2.56 136.01 24.113 210.595 75.665 9.66 6.723 15.405 17.618 15.405 29.34l0 714.314C997.53988 906.832 990.16488 918.962 978.36488 925.192L978.36488 925.192zM509.08888 184.815c-118.098-73.35-257.993-73.35-376.091 0l0 659.982c60.895-30.08 103.183-45.73 172.265-45.73 69.013 0 142.933 15.65 203.826 45.73L509.08888 184.815 509.08888 184.815zM943.11488 184.815c-118.01-73.35-261.511-73.35-379.611 0l0 659.982c60.893-30.08 138.34-45.73 207.351-45.73 69.085 0 111.37 15.65 172.26 45.73L943.11488 184.815 943.11488 184.815z" p-id="22088"></path></svg>