<svg t="1585629071318" class="icon" viewBox="0 0 1024 1024" version="1.1" xmlns="http://www.w3.org/2000/svg" p-id="22880" width="200" height="200"><path d="M514.25 1021c-68.535 0-135.033-13.428-197.646-39.911-60.465-25.575-114.764-62.183-161.387-108.806S71.986 771.362 46.411 710.896C19.927 648.283 6.5 581.785 6.5 513.25s13.428-135.033 39.911-197.646c25.575-60.465 62.183-114.764 108.806-161.387s100.922-83.23 161.387-108.805C379.217 18.928 445.715 5.5 514.25 5.5s135.033 13.428 197.646 39.911c60.466 25.575 114.764 62.182 161.387 108.805s83.23 100.922 108.806 161.387C1008.572 378.217 1022 444.715 1022 513.25s-13.428 135.033-39.911 197.646c-25.575 60.466-62.183 114.764-108.806 161.387s-100.921 83.23-161.387 108.806C649.283 1007.572 582.785 1021 514.25 1021z m0-967.5C260.742 53.5 54.5 259.742 54.5 513.25 54.5 766.757 260.742 973 514.25 973 767.757 973 974 766.757 974 513.25 974 259.742 767.757 53.5 514.25 53.5z" p-id="22881"></path><path d="M514.26 185.155c-110.129 0-199.715 89.586-199.715 199.705 0 72.244 38.184 137.51 100.462 173.113v128.555c0 10.697 8.662 19.366 19.366 19.366h159.77c10.707 0 19.366-8.669 19.366-19.366V557.973C675.77 522.37 713.954 457.104 713.954 384.86c0-110.119-89.587-199.705-199.694-199.705z m60.519 482.007h-121.04v-45.994h121.04v45.994z m10.762-138.153a19.39 19.39 0 0 0-10.762 17.353v36.074h-121.04v-36.074c0-7.356-4.18-14.079-10.761-17.353-55.337-27.412-89.701-82.654-89.701-144.148 0-88.765 72.207-160.972 160.982-160.972 88.754 0 160.962 72.207 160.962 160.972 0 61.493-34.364 116.725-89.68 144.148z m8.605 236.16H434.373c-10.704 0-19.366 8.669-19.366 19.366 0 10.693 8.662 19.366 19.366 19.366h159.773c10.703 0 19.365-8.673 19.365-19.366 0-10.697-8.662-19.366-19.365-19.366z m0 0" p-id="22882"></path></svg>