<?xml version="1.0" standalone="no"?><!DOCTYPE svg PUBLIC "-//W3C//DTD SVG 1.1//EN" "http://www.w3.org/Graphics/SVG/1.1/DTD/svg11.dtd"><svg class="icon" width="16px" height="16.00px" viewBox="0 0 1024 1024" version="1.1" xmlns="http://www.w3.org/2000/svg"><path  d="M416 128C364.8 128 320 172.8 320 224v128C320 403.2 364.8 448 416 448S512 403.2 512 352v-128C512 172.8 467.2 128 416 128z m0-128C537.6 0 640 102.4 640 224v128C640 473.6 537.6 576 416 576S192 473.6 192 352v-128C192 102.4 294.4 0 416 0z m179.2 569.6c89.6-25.6 160-115.2 160-217.6v-128c0-102.4-70.4-185.6-160-217.6 19.2-6.4 44.8-6.4 64-6.4 121.6 0 224 102.4 224 224v128c0 121.6-102.4 224-224 224-25.6 0-44.8-6.4-64-6.4z m140.8 70.4h108.8l179.2 179.2V1024h-128v-224L736 640z m96 179.2V1024H0v-204.8L179.2 640h467.2l185.6 179.2z m-128 57.6L595.2 768H236.8L128 876.8v19.2h576v-19.2z" /></svg>
