<?xml version="1.0" standalone="no"?><!DOCTYPE svg PUBLIC "-//W3C//DTD SVG 1.1//EN" "http://www.w3.org/Graphics/SVG/1.1/DTD/svg11.dtd"><svg t="1590054000242" class="icon" viewBox="0 0 1024 1024" version="1.1" xmlns="http://www.w3.org/2000/svg" p-id="1539" xmlns:xlink="http://www.w3.org/1999/xlink" width="32" height="32"><defs><style type="text/css"></style></defs><path d="M1008.457714 0H14.902686L0 14.902686v745.198251l14.902686 14.902686h419.769644v119.221486h-233.454091l-14.902686 14.902686v99.329919l14.902686 14.902686h620.987882l14.902686-14.902686v-99.329919l-14.902686-14.902686H588.68807v-119.221486h419.769644l14.902686-14.902686V14.902686L1008.457714 0zM120.948407 645.804372V129.13529h781.463586v516.669082H120.948407z" p-id="1540" ></path><path d="M737.139288 239.338413c-9.082324-7.803123-18.420487-8.762523-28.142411 0.255841l-153.50406 156.318301-101.82436-103.487321c-8.250843-6.651843-17.269207-8.058963-27.630731-0.6396L243.176015 460.76802c-12.216365 10.105684-9.977764 19.315928-1.08732 28.078451l42.213616 45.603498c9.530044 11.896565 18.868207 10.489444 28.014491 1.15128l124.466209-115.128045 104.44672 106.173642a23.985009 23.985009 0 0 0 28.334291 0l212.027483-215.673205c8.698563-9.530044 11.065084-18.996127-0.25584-28.142411l-44.196377-43.492817z" p-id="1541" ></path></svg>
