<?xml version="1.0" standalone="no"?><!DOCTYPE svg PUBLIC "-//W3C//DTD SVG 1.1//EN" "http://www.w3.org/Graphics/SVG/1.1/DTD/svg11.dtd"><svg class="icon" width="32px" height="32.00px" viewBox="0 0 1024 1024" version="1.1" xmlns="http://www.w3.org/2000/svg"><path  d="M0 0v1024h1024V0H0z m876.8 876.8H147.2V147.2h729.6v729.6zM403.2 793.6c44.8 0 83.2-12.8 115.2-44.8l32-32c64-64 38.4-153.6 12.8-224-19.2-64-32-102.4-12.8-121.6l19.2-19.2c12.8-12.8 32-19.2 51.2-19.2s38.4 6.4 51.2 19.2 19.2 32 19.2 51.2-6.4 38.4-19.2 51.2l-12.8 12.8-12.8 6.4 51.2 89.6 12.8-6.4c12.8-6.4 25.6-19.2 32-25.6 32-32 51.2-76.8 51.2-121.6a174.848 174.848 0 0 0-172.8-172.8c-44.8-6.4-89.6 12.8-121.6 44.8l-25.6 19.2c-64 64-38.4 153.6-12.8 224 19.2 64 32 102.4 12.8 121.6l-12.8 12.8-6.4 6.4c-12.8 12.8-32 19.2-51.2 19.2s-38.4-6.4-51.2-19.2c-12.8-12.8-19.2-25.6-19.2-44.8s6.4-38.4 19.2-51.2l12.8-12.8 12.8-6.4-51.2-89.6-12.8 6.4c-44.8 25.6-76.8 76.8-83.2 128-6.4 51.2 12.8 108.8 51.2 147.2 32 32 76.8 51.2 121.6 51.2z" /></svg>