<?xml version="1.0" standalone="no"?><!DOCTYPE svg PUBLIC "-//W3C//DTD SVG 1.1//EN" "http://www.w3.org/Graphics/SVG/1.1/DTD/svg11.dtd"><svg class="icon" width="16px" height="16.00px" viewBox="0 0 1024 1024" version="1.1" xmlns="http://www.w3.org/2000/svg"><path  d="M131.200952 619.713011l-124.927688 127.99968H0.00128v255.99936h499.454751v-127.99968H124.864968v-70.399824l56.191859-57.599856h275.071313l85.439786-127.99968zM405.824265 437.121467a154.559614 154.559614 0 0 1-156.031609-156.159609 154.559614 154.559614 0 0 1 156.031609-156.09561 154.559614 154.559614 0 0 1 156.15961 156.159609 154.559614 154.559614 0 0 1-156.15961 156.03161m281.023298-156.095609A279.8073 279.8073 0 0 0 405.888265 0.00256a279.8073 279.8073 0 0 0-280.959297 280.959298 279.8073 279.8073 0 0 0 280.959297 280.959297 279.8073 279.8073 0 0 0 280.959298-280.959297M797.311287 872.320379c-49.663876 0-82.879793-32.255919-82.879793-80.639798s33.279917-80.639798 82.879793-80.639799c49.727876 0 82.879793 32.255919 82.879793 80.639799s-33.151917 80.639798-82.879793 80.639798z m174.399564-106.111735L1023.99872 740.800708 954.238894 630.528984l-52.287869 25.407936c-17.471956-8.447979-26.175935-16.959958-43.519891-25.407936V579.585111H727.487461v50.943873c-8.703978 8.447979-26.111935 16.959958-43.519891 25.407936l-52.351869-25.407936L561.919875 740.800708l52.351869 25.407936v50.943873l-52.351869 25.407937 69.759826 110.271724 52.287869-25.471936c17.471956 8.511979 26.239934 16.959958 43.583891 25.471936V1003.712051h130.815673v-50.879873c17.407956-8.511979 34.815913-16.959958 43.583891-25.471936l52.287869 25.471936L1023.99872 842.560454l-52.287869-25.407937v-50.943873z" /></svg>
